<?xml version="1.0" encoding="UTF-8" standalone="no"?>
<svg
   xmlns:dc="http://purl.org/dc/elements/1.1/"
   xmlns:cc="http://creativecommons.org/ns#"
   xmlns:rdf="http://www.w3.org/1999/02/22-rdf-syntax-ns#"
   xmlns:svg="http://www.w3.org/2000/svg"
   xmlns="http://www.w3.org/2000/svg"
   xmlns:sodipodi="http://sodipodi.sourceforge.net/DTD/sodipodi-0.dtd"
   xmlns:inkscape="http://www.inkscape.org/namespaces/inkscape"
   sodipodi:docname="deepthought.svg"
   inkscape:version="0.92.5 (2060ec1f9f, 2020-04-08)"
   id="svg8"
   version="1.1"
   viewBox="0 0 64 64"
   height="64mm"
   width="64mm"
   inkscape:export-filename="/home/david/src/fortytwosystems/KiCAD-libs/deepthought.png"
   inkscape:export-xdpi="96"
   inkscape:export-ydpi="96">
  <defs
     id="defs2" />
  <sodipodi:namedview
     fit-margin-bottom="0"
     fit-margin-right="0"
     fit-margin-left="0"
     fit-margin-top="0"
     inkscape:window-maximized="1"
     inkscape:window-y="0"
     inkscape:window-x="64"
     inkscape:window-height="1043"
     inkscape:window-width="1856"
     showgrid="false"
     inkscape:document-rotation="0"
     inkscape:current-layer="layer1"
     inkscape:document-units="mm"
     inkscape:cy="112.98102"
     inkscape:cx="148.63067"
     inkscape:zoom="2.8"
     inkscape:pageshadow="2"
     inkscape:pageopacity="0.0"
     borderopacity="1.0"
     bordercolor="#666666"
     pagecolor="#ffffff"
     id="base" />
  <metadata
     id="metadata5">
    <rdf:RDF>
      <cc:Work
         rdf:about="">
        <dc:format>image/svg+xml</dc:format>
        <dc:type
           rdf:resource="http://purl.org/dc/dcmitype/StillImage" />
        <dc:title></dc:title>
      </cc:Work>
    </rdf:RDF>
  </metadata>
  <g
     transform="translate(-99.712169,-73.344109)"
     id="layer1"
     inkscape:groupmode="layer"
     inkscape:label="Layer 1">
    <path
       id="path26"
       d="m 100.93854,88.068451 3.21281,-1.6064 6.61458,-2.551337 8.78794,-3.023809 7.08706,-2.55134 6.52009,-1.700893 5.66964,-1.795388 3.40179,-0.755952 3.68526,1.700893 3.2128,2.267857 3.02381,2.078869 2.26786,2.267857 1.22842,3.496281 0.0945,4.252232 -0.18898,4.819195 -0.37798,7.937504 -0.28348,8.50446 -0.85045,2.92932 -0.75595,1.22842 -1.22842,0.28348 -0.94494,0.37798 -0.94494,1.41741 0.18898,1.13393 1.41741,0.28348 1.13393,0.37797 1.13393,1.7009 1.6064,3.1183 3.59077,8.40997 1.98438,1.79539 0.85045,2.17336 -5.19718,-1.03943 -46.77455,1.6064 1.13393,-3.40179 8.50446,-0.37797 2.07887,-9.16593 -2.64583,-0.66146 -1.22843,-1.22842 -0.18898,-0.47247 -0.66146,-1.22842 -0.47247,-0.75595 -2.55134,-3.40179 -2.64583,-4.34673 -4.06325,-8.22098 -3.77976,-9.260416 z"
       style="fill:none;stroke:#000000;stroke-width:0.26458299px;stroke-linecap:butt;stroke-linejoin:miter;stroke-opacity:1"
       inkscape:connector-curvature="0" />
    <path
       id="path28"
       d="m 116.62457,119.91295 23.15103,-6.4256"
       style="fill:none;stroke:#000000;stroke-width:0.26458299px;stroke-linecap:butt;stroke-linejoin:miter;stroke-opacity:1"
       inkscape:connector-curvature="0" />
    <path
       id="path32"
       d="m 142.23245,74.08333 2.92931,7.465033 1.5119,6.614583 0.37798,7.370535 v 5.575149 l -0.0945,9.35491 -0.47247,4.63021 -28.5372,7.27604"
       style="fill:none;stroke:#000000;stroke-width:0.26458299px;stroke-linecap:butt;stroke-linejoin:miter;stroke-opacity:1"
       inkscape:connector-curvature="0" />
    <path
       id="path34"
       d="m 146.48467,115.09375 6.80359,0.47247 v 0"
       style="fill:none;stroke:#000000;stroke-width:0.26458299px;stroke-linecap:butt;stroke-linejoin:miter;stroke-opacity:1"
       inkscape:connector-curvature="0" />
    <path
       id="path36"
       d="m 125.22352,121.80283 -2.07887,8.97693 4.06324,-4.63021 0.94494,-1.98437 1.6064,-2.17337 1.6064,-1.03943 h -3.02381 l -1.88988,0.0945 -0.85045,0.37798 z"
       style="fill:none;stroke:#000000;stroke-width:0.26458299px;stroke-linecap:butt;stroke-linejoin:miter;stroke-opacity:1"
       inkscape:connector-curvature="0" />
    <path
       id="path38"
       d="m 145.91771,117.26711 -1.32291,0.47247 2.26785,0.66146 z"
       style="fill:none;stroke:#000000;stroke-width:0.26458299px;stroke-linecap:butt;stroke-linejoin:miter;stroke-opacity:1"
       inkscape:connector-curvature="0" />
    <path
       id="path40"
       d="m 128.90879,132.85863 2.17336,-3.30729 1.32291,-1.41741 -0.75595,-2.17337 -1.6064,0.85045 -2.17336,1.88988 -2.26786,2.07887 -1.79538,2.07887 z"
       style="fill:none;stroke:#000000;stroke-width:0.26458299px;stroke-linecap:butt;stroke-linejoin:miter;stroke-opacity:1"
       inkscape:connector-curvature="0" />
    <path
       id="path42"
       d="m 132.40506,128.13393 6.4256,-1.6064 7.65402,-0.66146 4.06324,0.18899 1.51191,0.47247 2.92931,4.91369 v 0 0"
       style="fill:none;stroke:#000000;stroke-width:0.26458299px;stroke-linecap:butt;stroke-linejoin:miter;stroke-opacity:1"
       inkscape:connector-curvature="0" />
    <path
       id="path44"
       d="m 128.90879,132.85863 26.08035,-1.41741 v 0 l 4.25224,1.22842"
       style="fill:none;stroke:#000000;stroke-width:0.26458299px;stroke-linecap:butt;stroke-linejoin:miter;stroke-opacity:1"
       inkscape:connector-curvature="0" />
    <path
       id="path46"
       d="m 146.86265,118.40104 5.19718,8.12649"
       style="fill:none;stroke:#000000;stroke-width:0.26458299px;stroke-linecap:butt;stroke-linejoin:miter;stroke-opacity:1"
       inkscape:connector-curvature="0" />
    <path
       id="path48"
       d="m 150.35894,118.77902 8.88244,13.89062"
       style="fill:none;stroke:#000000;stroke-width:0.26458299px;stroke-linecap:butt;stroke-linejoin:miter;stroke-opacity:1"
       inkscape:connector-curvature="0" />
    <path
       id="path50"
       d="m 131.36563,120.95238 13.22917,-3.2128"
       style="fill:none;stroke:#000000;stroke-width:0.26458299px;stroke-linecap:butt;stroke-linejoin:miter;stroke-opacity:1"
       inkscape:connector-curvature="0" />
    <path
       id="path54"
       d="m 142.09071,112.37704 0.63783,0.35436 -0.0236,0.44884 -0.16536,0.33073 -0.56696,0.0709 -0.35436,-0.30711 v -0.68508 z"
       style="fill:none;stroke:#000000;stroke-width:0.26458299px;stroke-linecap:butt;stroke-linejoin:miter;stroke-opacity:1"
       inkscape:connector-curvature="0" />
    <path
       id="path56"
       d="m 139.86065,114.0071 -23.29278,6.66183 v 0 0"
       style="fill:none;stroke:#000000;stroke-width:0.26458299px;stroke-linecap:butt;stroke-linejoin:miter;stroke-opacity:1"
       inkscape:connector-curvature="0" />
    <path
       style="fill:#c8ab37;stroke-width:0.09449405"
       d="m 117.69421,121.41158 -0.39443,-0.75341 0.49465,-0.14715 c 0.27206,-0.0809 5.3422,-1.53334 11.26698,-3.22757 5.92478,-1.69423 10.80244,-3.10748 10.83926,-3.14054 0.0368,-0.0331 0.033,-0.11499 -0.008,-0.18206 -0.0581,-0.094 -2.6582,0.61614 -11.33441,3.09547 -6.19248,1.76958 -11.31871,3.21741 -11.39162,3.21741 -0.0729,0 -0.15704,-0.0638 -0.18696,-0.14174 -0.0299,-0.078 -0.0353,-0.14174 -0.0119,-0.14174 0.0876,0 22.58944,-6.2451 22.73675,-6.31028 0.0933,-0.0413 0.13048,-0.12697 0.0945,-0.21776 -0.0505,-0.12752 -1.7652,0.32391 -11.57878,3.04838 -6.3357,1.75894 -11.52751,3.18701 -11.53736,3.1735 -0.01,-0.0135 -0.59003,-0.78997 -1.28929,-1.72547 -1.9878,-2.65933 -3.539,-5.31708 -5.88712,-10.08672 -2.0916,-4.24858 -2.61059,-5.45782 -6.66571,-15.5311 l -1.67775,-4.167674 1.85418,-0.908789 c 2.29317,-1.12395 6.08429,-2.581622 12.24301,-4.707397 2.54358,-0.877955 6.16565,-2.151082 8.04906,-2.829173 2.84468,-1.024184 3.97043,-1.375432 6.65008,-2.074912 1.77414,-0.463112 4.50915,-1.246263 6.0778,-1.740337 1.56865,-0.494074 3.58033,-1.061654 4.47039,-1.26129 l 1.6183,-0.362975 1.43833,3.673429 1.43834,3.673429 0.74365,3.253676 0.74366,3.253676 0.20305,3.757782 c 0.18701,3.460965 0.1984,4.347424 0.14425,11.222815 -0.055,6.98001 -0.0735,7.60516 -0.28569,9.62176 -0.12479,1.18621 -0.24181,2.17165 -0.26003,2.18987 -0.0182,0.0182 -6.30484,1.63219 -13.97025,3.58659 -7.66542,1.95439 -14.00348,3.57375 -14.08459,3.59858 -0.10653,0.0326 -0.25697,-0.16402 -0.5419,-0.70828 z m 24.79746,-7.71449 c 0.23415,-0.0628 0.41312,-0.40464 0.41312,-0.78901 0,-0.20889 -0.0758,-0.31442 -0.33613,-0.46802 -0.38613,-0.22782 -0.50716,-0.24059 -0.8406,-0.0887 -0.21315,0.0971 -0.24068,0.16606 -0.24068,0.60268 0,0.40435 0.0382,0.5197 0.21261,0.64134 0.22672,0.15815 0.46649,0.18894 0.79168,0.10167 z"
       id="path86"
       inkscape:connector-curvature="0" />
    <path
       style="fill:#c8ab37;stroke-width:0.09449405"
       d="m 149.5029,115.13637 c -1.49025,-0.11085 -2.73418,-0.22651 -2.76428,-0.25701 -0.0301,-0.0305 0.0488,-1.0723 0.17525,-2.31511 0.21242,-2.08709 0.23485,-2.79722 0.29371,-9.29945 0.0588,-6.49267 0.0476,-7.351936 -0.14374,-11.055806 l -0.20746,-4.015997 -0.74982,-3.307291 -0.74982,-3.307292 -1.36772,-3.499734 c -0.75224,-1.924854 -1.36771,-3.52749 -1.36771,-3.561413 0,-0.03392 0.72615,0.274855 1.61368,0.686176 1.3531,0.627087 1.891,0.943797 3.33092,1.961219 0.94447,0.66735 2.37632,1.666216 3.18188,2.219704 1.07278,0.737083 1.73596,1.279006 2.47864,2.025418 l 1.01398,1.019076 0.6051,1.711541 0.6051,1.711541 0.0669,2.115467 c 0.0673,2.129012 0.0297,3.388087 -0.32864,10.99791 -0.10279,2.182811 -0.25262,5.882261 -0.33295,8.220981 l -0.14606,4.25223 -0.41392,1.39823 c -0.24008,0.81099 -0.54798,1.62456 -0.73315,1.93713 l -0.31923,0.5389 -0.51555,0.0126 c -0.28356,0.007 -1.73485,-0.0781 -3.22511,-0.18899 z"
       id="path88"
       inkscape:connector-curvature="0" />
    <path
       style="fill:#c8ab37;stroke-width:0.09449405"
       d="m 110.39884,136.9284 c 0,-0.16523 0.96629,-2.95306 1.02365,-2.95334 0.36037,-0.002 8.46495,-0.38778 8.47383,-0.40361 0.0435,-0.0777 2.0639,-9.12936 2.07018,-9.27477 0.007,-0.15669 -0.17953,-0.22905 -1.33792,-0.51972 -1.3365,-0.33535 -1.34914,-0.34105 -1.83387,-0.82613 l -0.48809,-0.48845 0.36921,-0.0967 c 0.20307,-0.0532 6.55364,-1.67268 14.11238,-3.59885 l 13.74317,-3.50211 2.69397,0.19248 c 1.48169,0.10586 2.70885,0.20734 2.72703,0.22552 0.0182,0.0182 -0.18835,0.11247 -0.45895,0.20955 -0.44589,0.15998 -0.53977,0.24828 -1.00192,0.94249 l -0.50994,0.76598 0.11043,0.63411 c 0.10597,0.60853 0.2836,0.9049 4.40395,7.34779 2.36144,3.69253 4.28071,6.72377 4.26505,6.73611 -0.0157,0.0123 -0.84118,-0.21243 -1.83451,-0.49947 l -1.80605,-0.52188 -1.50124,-2.50612 c -3.02098,-5.04312 -7.38774,-11.73031 -7.65993,-11.73031 -0.0145,0 -0.31435,0.10866 -0.66635,0.24146 -0.352,0.13281 -3.59529,0.95682 -7.20733,1.83115 l -6.56733,1.58968 -2.50723,0.0549 c -2.38949,0.0523 -2.53148,0.0657 -3.02381,0.28477 -0.28412,0.12645 -0.60979,0.33029 -0.72372,0.45297 -0.16447,0.17712 -0.41202,1.1086 -1.20185,4.52229 -0.54709,2.36457 -1.00667,4.40378 -1.02129,4.53158 -0.0662,0.57904 0.31007,0.25004 2.28794,-2.00042 1.88849,-2.14876 2.04734,-2.35849 2.4899,-3.28738 0.27563,-0.57852 0.80855,-1.44797 1.27824,-2.08541 0.72137,-0.97903 0.8874,-1.14504 1.58925,-1.58913 l 0.78372,-0.49589 6.56143,-1.59525 6.56143,-1.59526 1.06976,0.31184 1.06977,0.31185 2.42618,3.77023 c 1.33441,2.07362 2.42936,3.79932 2.43322,3.8349 0.004,0.0356 -0.23746,-0.0146 -0.5363,-0.11147 -0.66105,-0.2143 -4.15244,-0.39132 -5.40979,-0.27429 -0.44175,0.0411 -2.14265,0.18775 -3.77976,0.32584 l -2.97656,0.25107 -3.02381,0.75 c -1.66309,0.4125 -3.09315,0.77079 -3.1779,0.79619 -0.12243,0.0367 -0.22747,-0.16312 -0.51117,-0.97241 -0.19639,-0.56023 -0.38918,-1.05535 -0.42841,-1.10028 -0.0392,-0.0449 -0.47411,0.13608 -0.96638,0.40224 -0.88204,0.47691 -2.00195,1.39489 -4.46326,3.65851 -0.76551,0.70403 -2.68514,2.82993 -2.7686,3.06611 -0.0193,0.0545 1.04428,0.089 2.74032,0.0889 2.2266,-1.9e-4 5.32107,-0.13916 15.73164,-0.70637 l 12.9598,-0.70609 2.09868,0.60976 2.09869,0.60976 0.96806,0.89645 c 0.93522,0.86603 0.97848,0.92403 1.27485,1.70927 0.16872,0.44704 0.28197,0.83762 0.25165,0.86793 -0.0303,0.0303 -1.15079,-0.16097 -2.48995,-0.42508 -2.01253,-0.39692 -2.55775,-0.47275 -3.14354,-0.43717 -0.38979,0.0237 -2.62221,0.1058 -4.96094,0.18252 -4.92062,0.16143 -22.10393,0.74675 -26.26934,0.89483 -14.10331,0.50137 -14.41034,0.50994 -14.41034,0.40243 z"
       id="path90"
       inkscape:connector-curvature="0" />
    <path
       style="fill:#c8ab37;stroke-width:0.09449405"
       d="m 129.35613,132.53433 c 0.56027,-0.95032 2.14177,-3.18713 2.57983,-3.64882 l 0.57061,-0.60138 3.14386,-0.78695 3.14387,-0.78694 3.89305,-0.33811 c 3.79712,-0.32977 3.94182,-0.33553 5.87171,-0.23395 1.56509,0.0824 2.12404,0.1485 2.67428,0.31633 l 0.69563,0.21218 1.38243,2.3078 1.38244,2.3078 -0.39025,0.0252 c -0.21463,0.0138 -1.55961,0.0875 -2.98883,0.1637 -8.39452,0.44758 -18.5965,1.00249 -19.95246,1.08526 -2.03451,0.1242 -2.09203,0.12356 -2.00617,-0.0221 z"
       id="path92"
       inkscape:connector-curvature="0" />
    <path
       style="fill:#c8ab37;stroke-width:0.09449405"
       d="m 154.47474,124.88346 c -1.86792,-2.91915 -3.47228,-5.43067 -3.56525,-5.58116 l -0.16903,-0.27362 0.31077,0.0617 c 0.17093,0.034 0.62503,0.15196 1.00911,0.26225 l 0.69834,0.20053 0.64409,0.97727 c 0.35426,0.5375 1.00229,1.68826 1.44007,2.55726 0.79053,1.5692 3.14381,6.98759 3.06781,7.06359 -0.0218,0.0218 -1.56799,-2.3487 -3.43591,-5.26784 z"
       id="path94"
       inkscape:connector-curvature="0" />
    <path
       style="fill:#c83737;stroke-width:0.09449405"
       d="m 141.86967,113.23912 c -0.16877,-0.20336 -0.0849,-0.56738 0.13811,-0.59935 0.31633,-0.0453 0.55659,0.19543 0.48392,0.48496 -0.0713,0.28426 -0.4268,0.34963 -0.62203,0.11439 z"
       id="path96"
       inkscape:connector-curvature="0" />
  </g>
</svg>
